<svg width="1280" height="720" viewBox="0 0 1280 720" fill="none" xmlns="http://www.w3.org/2000/svg">
<g clip-path="url(#clip0_13_532)">
<rect width="1280" height="720" rx="90" fill="black"/>
<rect x="297.85" y="18.6526" width="660.092" height="330.046" fill="black"/>
<rect x="297.85" y="348.698" width="660.092" height="330.046" fill="black"/>
<path d="M0 -11H1280V341H0V-11Z" fill="url(#paint0_radial_13_532)"/>
<path d="M0 -11H1280V341H0V-11Z" fill="url(#paint1_radial_13_532)"/>
<path d="M-165 720H1543V357H-165V720Z" fill="url(#paint2_linear_13_532)"/>
<path d="M-165 720H1543V357H-165V720Z" fill="url(#paint3_radial_13_532)"/>
<circle cx="627.896" cy="340.533" r="109.156" fill="white"/>
<circle cx="627.896" cy="340.533" r="109.156" fill="url(#paint4_linear_13_532)" fill-opacity="0.2"/>
<circle cx="627.896" cy="340.533" r="109.156" stroke="black" stroke-width="25.7848"/>
<g clip-path="url(#clip1_13_532)">
<path d="M734.903 342.252C734.903 283.249 686.899 235.245 627.896 235.245C568.893 235.245 520.889 283.249 520.889 342.252C520.889 357.182 523.983 371.397 529.531 384.318C529.602 384.465 529.654 384.617 529.74 384.753C546.22 422.661 583.994 449.259 627.896 449.259C655.266 449.259 680.188 438.842 699.131 421.877C699.198 421.833 699.267 421.803 699.334 421.759L699.306 421.717C721.097 402.115 734.903 373.8 734.903 342.252ZM529.939 344.873C532.595 343.871 538.866 342.252 552.099 342.252C560.681 342.252 569.757 345.215 579.195 349.729C578.15 350.541 577.117 351.303 576.064 352.145C560.115 364.908 543.596 373.052 536.072 376.429C532.382 366.551 530.233 355.951 529.939 344.873ZM673.762 391.484C661.118 387.69 648.774 381.247 636.701 374.007C643.773 370.953 652.168 369.004 663.565 369.004C684.761 369.004 696.546 375.506 704.487 381.345C697.657 384.98 688.438 388.632 675.974 391.402C675.543 391.497 675.115 391.636 674.685 391.737C674.374 391.645 674.073 391.577 673.762 391.484ZM712.169 387.283C712.869 387.811 713.557 388.31 714.234 388.752C712.136 392.632 709.712 396.295 707.129 399.839C702.032 398.81 696.878 397.696 691.608 396.379C700.141 393.596 706.88 390.426 712.169 387.283ZM712.629 376.316C704.076 369.588 690.192 360.087 663.565 360.087C647.599 360.087 636.713 363.532 627.703 368.459C624.269 366.292 620.849 364.107 617.459 361.924C610.181 357.239 603.045 352.695 596.004 348.599C612.246 337.839 625.854 333.344 641.263 333.344C661.96 333.344 686.375 345.845 717.577 372.211C716.276 373.453 714.659 374.836 712.629 376.316ZM612.63 369.422C614.847 370.848 617.074 372.281 619.31 373.708C616.233 375.892 613.271 378.188 610.292 380.534C606.051 383.869 601.578 387.263 596.605 390.449C584.76 383.177 565.619 380.09 551.459 378.822C559.989 374.285 570.861 367.728 581.637 359.111C583.822 357.364 585.899 355.812 587.977 354.262C595.978 358.724 604.21 364.002 612.63 369.422ZM587.459 395.61C572.319 402.774 557.502 404.281 552.217 404.589C547.775 399.206 543.964 393.304 540.738 387.052C551.948 387.575 573.606 389.397 587.459 395.61ZM596.288 401.092C599.404 403.502 602.329 405.862 605.058 408.095C609.506 411.74 613.704 415.156 618.182 418.207C607.456 425.374 599.411 431.834 595.817 434.846C582.262 430.135 570.053 422.572 559.927 412.815C568.853 411.633 582.677 408.616 596.288 401.092ZM610.71 401.198C608.672 399.529 606.525 397.791 604.296 396.023C608.392 393.216 612.222 390.361 615.804 387.544C619.738 384.447 623.54 381.525 627.592 378.91C638.184 385.451 649.043 391.526 660.277 396.093C648.102 400.581 636.469 406.734 626.428 412.903C621.091 409.646 616.218 405.712 610.71 401.198ZM674.631 400.968C683.552 403.562 692.296 405.737 700.854 407.586C698.633 410.062 696.295 412.418 693.837 414.658C681.93 422.322 668.156 422.507 668.023 422.507C653.85 422.507 644.076 420.697 636.058 417.605C647.753 410.798 661.173 404.45 674.631 400.968ZM627.896 244.162C681.983 244.162 725.986 288.165 725.986 342.252C725.986 350.186 724.936 357.863 723.149 365.257C690.312 337.561 664.116 324.426 641.263 324.426C620.494 324.426 603.956 331.939 587.223 343.772C575.259 337.58 563.579 333.335 552.099 333.335C541.541 333.335 534.685 334.324 530.148 335.502C533.642 284.565 576.087 244.162 627.896 244.162ZM627.896 440.342C620.467 440.342 613.257 439.44 606.297 437.867C611.09 434.108 618.228 428.82 626.785 423.31C636.699 428.292 649.028 431.425 668.023 431.425C668.071 431.425 668.359 431.415 668.548 431.412C656.144 437.091 642.406 440.342 627.896 440.342Z" fill="black"/>
</g>
<path d="M390.5 600.83C394.455 600.83 396.799 598.438 396.799 594.287V576.709H411.057C425.314 576.709 435.324 567.188 435.324 553.125C435.324 539.062 425.607 529.541 411.594 529.541H390.5C386.594 529.541 384.201 531.982 384.201 536.084V594.287C384.201 598.438 386.594 600.83 390.5 600.83ZM396.799 566.553V539.844H408.273C417.307 539.844 422.531 544.678 422.531 553.125C422.531 561.67 417.258 566.553 408.225 566.553H396.799ZM464.279 601.025C479.465 601.025 489.328 590.918 489.328 574.121C489.328 557.373 479.367 547.168 464.279 547.168C449.191 547.168 439.23 557.422 439.23 574.121C439.23 590.918 449.094 601.025 464.279 601.025ZM464.279 591.406C456.564 591.406 451.584 585.156 451.584 574.121C451.584 563.135 456.613 556.836 464.279 556.836C471.994 556.836 476.975 563.135 476.975 574.121C476.975 585.156 471.994 591.406 464.279 591.406ZM503.586 600.977C507.15 600.977 509.641 598.682 509.641 594.58V582.227L514.23 577.93L529.758 597.607C531.516 600.146 532.932 600.977 535.324 600.977C538.693 600.977 541.086 598.73 541.086 595.557C541.086 593.994 540.695 592.92 539.426 591.162L523.215 570.898L537.961 556.934C539.621 555.371 540.158 554.248 540.158 552.441C540.158 549.512 537.863 547.217 534.836 547.217C532.98 547.217 531.662 547.9 530.1 549.561L509.787 569.629H509.641V534.961C509.641 530.859 507.15 528.564 503.586 528.564C500.021 528.564 497.482 530.859 497.482 534.961V594.58C497.482 598.682 500.021 600.977 503.586 600.977ZM570.383 542.383C572.092 542.383 572.922 541.943 574.24 540.283L581.467 531.543C582.346 530.42 582.736 529.395 582.736 528.223C582.736 525.781 580.881 524.072 578.244 524.072C576.291 524.072 575.217 524.756 573.557 527.148L567.258 536.133C566.574 537.061 566.33 537.793 566.33 538.867C566.33 540.918 568.039 542.383 570.383 542.383ZM569.553 601.025C579.416 601.025 587.131 597.168 590.549 590.576C591.086 589.502 591.379 588.428 591.379 587.5C591.379 584.57 589.23 582.812 586.496 582.812C584.787 582.812 583.664 583.35 582.395 584.766C578.488 589.746 574.924 591.65 569.455 591.65C561.545 591.65 556.516 586.084 556.516 577.441V577.051H587.033C590.646 577.051 592.697 574.902 592.697 571.289C592.697 557.227 583.029 547.168 568.869 547.168C553.928 547.168 544.406 557.812 544.406 574.316C544.406 591.113 553.732 601.025 569.553 601.025ZM556.613 569.043C557.102 561.621 562.082 556.592 568.918 556.592C575.754 556.592 580.539 561.523 580.783 569.043H556.613ZM608.078 600.83C612.033 600.83 614.377 598.438 614.377 594.287V535.254C614.377 531.104 612.033 528.711 608.078 528.711C604.172 528.711 601.779 531.104 601.779 535.254V594.287C601.779 598.438 604.172 600.83 608.078 600.83ZM631.613 600.977C635.178 600.977 637.717 598.682 637.717 594.58V570.02C637.717 562.598 642.16 557.568 649.143 557.568C656.076 557.568 659.494 561.67 659.494 568.994V594.58C659.494 598.682 662.033 600.977 665.598 600.977C669.162 600.977 671.652 598.682 671.652 594.58V566.553C671.652 554.59 665.158 547.266 653.732 547.266C645.773 547.266 640.402 550.83 637.619 556.982H637.375V553.369C637.375 549.609 634.934 547.217 631.369 547.217C627.756 547.217 625.559 549.609 625.559 553.369V594.58C625.559 598.682 628.049 600.977 631.613 600.977ZM684.787 587.207C684.787 596.045 689.377 600.537 698.41 600.537H698.898C704.465 600.537 707.59 598.633 707.59 595.068C707.59 592.236 705.93 590.869 702.707 590.576L701.828 590.479C698.312 590.186 696.945 588.477 696.945 584.57V557.617H702.561C705.588 557.617 707.443 555.811 707.443 552.881C707.443 550 705.588 548.242 702.561 548.242H696.945V541.357C696.945 537.451 694.602 535.01 690.891 535.01C687.131 535.01 684.787 537.451 684.787 541.357V548.242H681.516C678.488 548.242 676.633 550 676.633 552.881C676.633 555.811 678.488 557.617 681.516 557.617H684.787V587.207ZM737.033 601.025C746.896 601.025 754.611 597.168 758.029 590.576C758.566 589.502 758.859 588.428 758.859 587.5C758.859 584.57 756.711 582.812 753.977 582.812C752.268 582.812 751.145 583.35 749.875 584.766C745.969 589.746 742.404 591.65 736.936 591.65C729.025 591.65 723.996 586.084 723.996 577.441V577.051H754.514C758.127 577.051 760.178 574.902 760.178 571.289C760.178 557.227 750.51 547.168 736.35 547.168C721.408 547.168 711.887 557.812 711.887 574.316C711.887 591.113 721.213 601.025 737.033 601.025ZM724.094 569.043C724.582 561.621 729.562 556.592 736.398 556.592C743.234 556.592 748.02 561.523 748.264 569.043H724.094ZM774.094 600.977C777.658 600.977 780.197 598.682 780.197 594.58V570.02C780.197 562.598 784.641 557.568 791.623 557.568C798.557 557.568 801.975 561.67 801.975 568.994V594.58C801.975 598.682 804.514 600.977 808.078 600.977C811.643 600.977 814.133 598.682 814.133 594.58V566.553C814.133 554.59 807.639 547.266 796.213 547.266C788.254 547.266 782.883 550.83 780.1 556.982H779.855V553.369C779.855 549.609 777.414 547.217 773.85 547.217C770.236 547.217 768.039 549.609 768.039 553.369V594.58C768.039 598.682 770.529 600.977 774.094 600.977ZM827.268 587.207C827.268 596.045 831.857 600.537 840.891 600.537H841.379C846.945 600.537 850.07 598.633 850.07 595.068C850.07 592.236 848.41 590.869 845.188 590.576L844.309 590.479C840.793 590.186 839.426 588.477 839.426 584.57V557.617H845.041C848.068 557.617 849.924 555.811 849.924 552.881C849.924 550 848.068 548.242 845.041 548.242H839.426V541.357C839.426 537.451 837.082 535.01 833.371 535.01C829.611 535.01 827.268 537.451 827.268 541.357V548.242H823.996C820.969 548.242 819.113 550 819.113 552.881C819.113 555.811 820.969 557.617 823.996 557.617H827.268V587.207ZM877.463 601.025C890.646 601.025 899.533 594.531 899.533 584.619C899.533 576.953 895.188 572.998 884.25 570.508L875.998 568.701C870.627 567.48 868.381 565.43 868.381 562.402C868.381 558.691 872.043 556.104 877.365 556.104C882.492 556.104 885.471 558.35 887.863 561.914C888.986 563.525 890.744 564.16 892.502 564.16C895.578 564.16 897.189 562.354 897.189 559.814C897.189 559.229 897.092 558.643 896.945 558.008C895.334 552.051 887.619 547.168 877.658 547.168C864.865 547.168 856.564 553.467 856.564 563.086C856.564 570.605 861.545 575.586 871.652 577.881L880.051 579.785C885.373 581.006 887.326 582.715 887.326 585.84C887.326 589.746 883.566 592.139 877.902 592.139C872.092 592.139 868.967 590.381 866.232 586.426C864.67 584.375 862.961 583.447 860.959 583.447C858.029 583.447 855.881 585.303 855.881 588.232C855.881 588.965 856.027 589.746 856.369 590.625C858.859 596.826 866.525 601.025 877.463 601.025Z" fill="black"/>
</g>
<defs>
<radialGradient id="paint0_radial_13_532" cx="0" cy="0" r="1" gradientUnits="userSpaceOnUse" gradientTransform="translate(-72.5 458) rotate(-17.9576) scale(1271.44 2818.2)">
<stop stop-color="#8D2820"/>
<stop offset="1" stop-color="#FF000A"/>
</radialGradient>
<radialGradient id="paint1_radial_13_532" cx="0" cy="0" r="1" gradientUnits="userSpaceOnUse" gradientTransform="translate(642.14 -64.6737) rotate(90) scale(483.064 1756.6)">
<stop stop-color="#F3986B"/>
<stop offset="0.197917" stop-color="#EA6D43"/>
<stop offset="1" stop-color="#C91E0A"/>
</radialGradient>
<linearGradient id="paint2_linear_13_532" x1="1327.84" y1="30.3" x2="878.18" y2="929.623" gradientUnits="userSpaceOnUse">
<stop stop-color="white"/>
<stop offset="1" stop-color="#E1E1E1"/>
</linearGradient>
<radialGradient id="paint3_radial_13_532" cx="0" cy="0" r="1" gradientUnits="userSpaceOnUse" gradientTransform="translate(691.856 775.351) rotate(-90) scale(498.16 2343.96)">
<stop stop-color="#D4E2FA"/>
<stop offset="0.197917" stop-color="#E1E8FA"/>
<stop offset="1" stop-color="#F8F8FA"/>
</radialGradient>
<linearGradient id="paint4_linear_13_532" x1="341.469" y1="651.026" x2="736.383" y2="534.982" gradientUnits="userSpaceOnUse">
<stop stop-opacity="0.2"/>
<stop offset="1" stop-color="white"/>
</linearGradient>
<clipPath id="clip0_13_532">
<rect width="1280" height="720" rx="90" fill="white"/>
</clipPath>
<clipPath id="clip1_13_532">
<rect width="214.014" height="214.014" fill="white" transform="translate(520.889 235.245)"/>
</clipPath>
</defs>
</svg>
