<svg width="256" height="256" viewBox="0 0 256 256" fill="none" xmlns="http://www.w3.org/2000/svg">
<g clip-path="url(#clip0_18_104)">
<rect width="256" height="256" rx="32" fill="black"/>
<rect width="256" height="128" fill="black"/>
<rect y="128" width="256" height="128" fill="black"/>
<rect x="-29.333" y="-11.5" width="371.667" height="136.333" fill="url(#paint0_radial_18_104)"/>
<rect x="-29.333" y="-11.5" width="371.667" height="136.333" fill="url(#paint1_radial_18_104)"/>
<path d="M-39.5 245.333C-39.5 260.061 -27.5609 272 -12.8333 272H277.833C292.561 272 304.5 260.061 304.5 245.333V131.167H-39.5V245.333Z" fill="url(#paint2_linear_18_104)"/>
<circle cx="128" cy="124.833" r="42.3333" fill="white"/>
<circle cx="128" cy="124.833" r="42.3333" fill="url(#paint3_linear_18_104)" fill-opacity="0.2"/>
<circle cx="128" cy="124.833" r="42.3333" stroke="black" stroke-width="10"/>
<g clip-path="url(#clip1_18_104)">
<path d="M169.5 125.5C169.5 102.617 150.883 84 128 84C105.117 84 86.5 102.617 86.5 125.5C86.5 131.29 87.7 136.803 89.8515 141.814C89.8792 141.871 89.8994 141.93 89.9328 141.983C96.3241 156.685 110.974 167 128 167C138.615 167 148.28 162.96 155.627 156.38C155.653 156.363 155.68 156.352 155.706 156.335L155.695 156.319C164.146 148.716 169.5 137.735 169.5 125.5ZM90.0098 126.516C91.0399 126.128 93.472 125.5 98.6042 125.5C101.932 125.5 105.452 126.649 109.113 128.4C108.708 128.715 108.307 129.01 107.898 129.337C101.713 134.286 95.3065 137.445 92.3883 138.755C90.9574 134.924 90.124 130.813 90.0098 126.516ZM145.788 144.593C140.884 143.122 136.097 140.623 131.415 137.815C134.157 136.631 137.414 135.875 141.833 135.875C150.054 135.875 154.624 138.397 157.704 140.661C155.055 142.071 151.48 143.487 146.646 144.561C146.479 144.599 146.313 144.652 146.146 144.692C146.025 144.656 145.909 144.63 145.788 144.593ZM160.683 142.964C160.955 143.169 161.222 143.362 161.484 143.534C160.671 145.038 159.73 146.459 158.729 147.834C156.752 147.434 154.753 147.002 152.709 146.492C156.018 145.412 158.632 144.183 160.683 142.964ZM160.862 138.711C157.544 136.102 152.16 132.417 141.833 132.417C135.641 132.417 131.419 133.753 127.925 135.664C126.593 134.823 125.267 133.976 123.952 133.129C121.13 131.312 118.362 129.55 115.632 127.961C121.931 123.789 127.208 122.045 133.184 122.045C141.211 122.045 150.68 126.894 162.781 137.119C162.276 137.6 161.649 138.137 160.862 138.711ZM122.08 136.037C122.939 136.59 123.803 137.146 124.67 137.699C123.477 138.546 122.328 139.437 121.173 140.347C119.528 141.64 117.793 142.956 115.865 144.192C111.271 141.372 103.847 140.174 98.3559 139.683C101.664 137.923 105.881 135.38 110.06 132.038C110.907 131.361 111.713 130.759 112.518 130.158C115.621 131.888 118.814 133.935 122.08 136.037ZM112.318 146.193C106.446 148.972 100.7 149.556 98.6498 149.676C96.9271 147.588 95.4494 145.299 94.1979 142.875C98.5457 143.077 106.945 143.784 112.318 146.193ZM115.742 148.319C116.95 149.254 118.085 150.17 119.143 151.036C120.868 152.449 122.496 153.774 124.233 154.957C120.073 157.737 116.953 160.242 115.559 161.41C110.302 159.583 105.567 156.65 101.64 152.866C105.102 152.408 110.463 151.238 115.742 148.319ZM121.335 148.361C120.544 147.713 119.712 147.039 118.847 146.354C120.436 145.265 121.922 144.158 123.311 143.065C124.836 141.864 126.311 140.731 127.882 139.717C131.99 142.254 136.202 144.61 140.558 146.381C135.836 148.121 131.325 150.507 127.431 152.9C125.361 151.637 123.471 150.111 121.335 148.361ZM146.125 148.271C149.585 149.277 152.976 150.121 156.295 150.838C155.434 151.798 154.527 152.712 153.574 153.581C148.956 156.553 143.614 156.625 143.562 156.625C138.066 156.625 134.275 155.923 131.165 154.724C135.701 152.084 140.906 149.622 146.125 148.271ZM128 87.4583C148.976 87.4583 166.042 104.524 166.042 125.5C166.042 128.577 165.634 131.554 164.942 134.422C152.207 123.681 142.047 118.587 133.184 118.587C125.13 118.587 118.716 121.5 112.226 126.089C107.586 123.688 103.056 122.042 98.6042 122.042C94.5096 122.042 91.8507 122.425 90.0909 122.882C91.446 103.127 107.907 87.4583 128 87.4583ZM128 163.542C125.119 163.542 122.323 163.192 119.623 162.582C121.482 161.124 124.251 159.073 127.569 156.936C131.414 158.868 136.196 160.083 143.562 160.083C143.581 160.083 143.693 160.08 143.766 160.078C138.955 162.281 133.628 163.542 128 163.542Z" fill="black"/>
</g>
</g>
<defs>
<radialGradient id="paint0_radial_18_104" cx="0" cy="0" r="1" gradientUnits="userSpaceOnUse" gradientTransform="translate(-50.3844 170.149) rotate(-23.3793) scale(382.609 1053.21)">
<stop stop-color="#8D2820"/>
<stop offset="1" stop-color="#FF000A"/>
</radialGradient>
<radialGradient id="paint1_radial_18_104" cx="0" cy="0" r="1" gradientUnits="userSpaceOnUse" gradientTransform="translate(157.122 -32.2884) rotate(90) scale(187.096 510.053)">
<stop stop-color="#F3986B"/>
<stop offset="0.197917" stop-color="#EA6D43"/>
<stop offset="1" stop-color="#C91E0A"/>
</radialGradient>
<linearGradient id="paint2_linear_18_104" x1="261.167" y1="4.41669" x2="43.25" y2="230.667" gradientUnits="userSpaceOnUse">
<stop stop-color="white"/>
<stop offset="1" stop-color="#E1E1E1"/>
</linearGradient>
<linearGradient id="paint3_linear_18_104" x1="16.917" y1="245.25" x2="170.074" y2="200.246" gradientUnits="userSpaceOnUse">
<stop stop-opacity="0.2"/>
<stop offset="1" stop-color="white"/>
</linearGradient>
<clipPath id="clip0_18_104">
<rect width="256" height="256" rx="32" fill="white"/>
</clipPath>
<clipPath id="clip1_18_104">
<rect width="83" height="83" fill="white" transform="translate(86.5 84)"/>
</clipPath>
</defs>
</svg>
